<?xml version="1.0" standalone="no"?><!DOCTYPE svg PUBLIC "-//W3C//DTD SVG 1.1//EN" "http://www.w3.org/Graphics/SVG/1.1/DTD/svg11.dtd"><svg height="400" node-id="1" sillyvg="true" template-height="400" template-width="600" version="1.1" viewBox="0 0 600 400" width="600" xmlns="http://www.w3.org/2000/svg" xmlns:xlink="http://www.w3.org/1999/xlink"><defs node-id="101"></defs><path d="M 0.00 0.00 L 600.00 0.00 L 600.00 400.00 L 0.00 400.00 Z" fill="#ffffff" fill-opacity="0" fill-rule="nonzero" node-id="104" stroke="none" target-height="400" target-width="600" target-x="0" target-y="0"></path><path d="M 127.90 333.40 L 119.80 333.20 L 112.40 332.50 L 105.40 331.50 L 98.90 330.20 L 93.00 328.50 L 86.90 326.30 L 81.30 323.90 L 76.00 321.20 L 71.20 318.20 L 66.80 315.00 L 61.50 310.40 L 56.80 305.60 L 52.60 300.30 L 48.80 294.80 L 45.60 288.90 L 42.80 282.70 L 40.40 276.30 L 38.50 269.60 L 37.00 262.80 L 36.00 255.90 L 35.40 248.80 L 35.20 241.50 L 35.40 234.10 L 36.90 220.60 L 39.80 208.80 L 41.90 203.10 L 44.20 197.70 L 46.70 192.80 L 49.60 188.30 L 52.60 184.20 L 56.10 180.30 L 59.70 176.80 L 63.60 173.70 L 67.60 171.00 L 71.80 168.70 L 76.30 166.70 L 80.80 165.20 L 85.60 164.20 L 90.50 163.50 L 95.70 163.30 L 100.50 163.50 L 104.50 164.00 L 107.80 164.90 L 113.90 167.40 L 119.70 171.70 L 128.60 180.80 L 131.90 183.70 L 135.70 186.50 L 141.70 189.40 L 149.50 191.40 L 154.20 192.00 L 159.90 192.20 L 164.80 191.90 L 169.50 190.90 L 174.10 189.30 L 178.50 187.20 L 182.90 184.60 L 187.20 181.50 L 193.50 176.40 L 199.90 170.60 L 219.40 151.60 L 226.40 145.50 L 236.20 137.90 L 241.50 134.50 L 246.90 131.50 L 252.60 128.90 L 258.60 126.70 L 268.00 124.60 L 278.50 123.80 L 288.60 124.60 L 296.20 126.50 L 302.70 129.60 L 307.70 133.40 L 310.60 136.50 L 313.00 139.80 L 315.10 143.30 L 317.90 148.90 L 325.10 166.00 L 329.20 172.80 L 331.60 175.90 L 334.40 178.50 L 337.70 180.90 L 341.60 182.80 L 344.70 183.90 L 352.40 185.30 L 357.20 185.50 L 370.00 184.70 L 376.50 183.70 L 386.30 181.80 L 396.10 179.40 L 424.60 171.90 L 433.30 169.90 L 444.50 168.10 L 449.40 167.80 L 454.40 167.90 L 458.80 168.50 L 462.90 169.60 L 465.70 170.90 L 468.30 172.50 L 470.70 174.60 L 472.90 177.00 L 474.70 179.70 L 476.40 183.00 L 477.70 186.90 L 480.00 195.90 L 483.50 204.90 L 489.70 215.60 L 494.00 221.60 L 498.80 227.90 L 506.60 236.90 L 547.50 280.10 L 552.20 285.60 L 559.20 295.30 L 562.90 302.50 L 564.60 308.60 L 564.70 311.70 L 564.20 314.50 L 563.10 317.20 L 561.30 319.80 L 559.20 321.90 L 556.20 324.10 L 552.20 326.20 L 547.00 328.20 L 535.80 331.20 L 519.20 333.60 L 507.40 334.60 L 493.00 335.20 L 475.60 335.50 L 417.50 335.30 L 127.90 333.40 Z" fill="#f3f9ff" fill-rule="nonzero" id="bg_1_" node-id="6" stroke="none" target-height="211.7" target-width="529.5" target-x="35.2" target-y="123.8"></path><g node-id="155"><path d="M 101.00 317.80 L 103.50 311.50 L 104.50 308.10 L 105.10 304.60 L 104.90 300.20 L 104.20 298.10 L 103.10 296.10 L 101.50 294.30 L 95.90 289.80 L 95.20 288.80 L 94.50 287.10 L 94.50 285.40 L 94.90 283.70 L 97.50 277.70 L 98.20 275.40 L 98.60 272.60 L 98.40 270.30 L 97.20 266.70 L 95.60 264.50 L 90.30 259.40 L 89.00 257.30 L 89.30 245.10 L 88.70 240.50 L 87.20 238.00 L 85.90 237.10 L 82.90 236.20 L 81.20 236.30 L 79.60 236.80 L 78.10 237.80 L 76.50 239.50 L 75.40 241.50 L 74.50 244.30 L 72.90 257.10 L 72.10 260.90 L 70.90 264.40 L 69.20 267.80 L 65.90 272.90 L 65.50 274.30 L 65.40 275.70 L 65.80 277.80 L 66.70 280.00 L 71.90 288.20 L 72.80 290.10 L 73.00 291.80 L 72.70 293.80 L 72.00 295.20 L 69.00 299.60 L 68.20 301.90 L 67.70 304.60 L 67.60 308.90 L 68.10 312.90 L 69.10 316.60 L 70.40 319.80 L 72.20 322.90 L 74.20 325.30 L 76.40 327.30 L 78.90 328.80 L 81.40 329.60 L 83.90 329.70 L 86.60 329.20 L 89.90 328.00 L 93.20 326.30 L 96.40 324.00 L 98.20 322.10 L 101.00 317.80 Z" fill="#8ae6b9" fill-rule="nonzero" group-id="1" id="Path" node-id="8" stroke="none" target-height="93.500015" target-width="39.699997" target-x="65.4" target-y="236.2"></path><path d="M 81.40 333.80 L 80.90 333.40 L 81.10 331.40 L 85.40 317.40 L 86.60 309.40 L 86.50 305.40 L 86.10 301.70 L 82.50 284.70 L 81.20 276.40 L 81.10 273.40 L 81.90 264.40 L 81.00 249.40 L 81.10 247.90 L 81.70 247.60 L 82.10 248.20 L 82.90 264.40 L 82.10 273.50 L 82.20 276.30 L 83.50 284.50 L 87.10 301.60 L 87.50 305.30 L 87.60 309.40 L 86.40 317.50 L 82.20 331.30 L 81.80 333.60 L 81.40 333.80 Z" fill="#44d690" fill-rule="nonzero" group-id="1" id="Path" node-id="9" stroke="none" target-height="86.19998" target-width="6.699997" target-x="80.9" target-y="247.6"></path><path d="M 80.30 281.00 L 78.50 280.60 L 77.00 279.70 L 75.10 277.30 L 75.30 276.60 L 76.00 276.80 L 77.60 278.80 L 78.70 279.60 L 80.50 280.00 L 82.10 279.70 L 82.30 280.40 L 82.10 280.60 L 80.30 281.00 Z" fill="#44d690" fill-rule="nonzero" group-id="1" id="Path" node-id="10" stroke="none" target-height="4.399994" target-width="7.2000046" target-x="75.1" target-y="276.6"></path><path d="M 81.70 272.60 L 81.20 272.20 L 81.20 271.80 L 84.40 270.50 L 86.00 269.40 L 87.40 267.90 L 88.70 265.60 L 89.00 265.60 L 89.40 266.20 L 87.70 269.10 L 85.00 271.40 L 81.70 272.60 Z" fill="#44d690" fill-rule="nonzero" group-id="1" id="Path" node-id="11" stroke="none" target-height="7" target-width="8.200005" target-x="81.2" target-y="265.6"></path><path d="M 87.00 305.90 L 83.10 305.10 L 80.20 303.40 L 79.10 302.10 L 78.20 300.10 L 78.50 299.50 L 79.20 299.80 L 80.00 301.60 L 81.00 302.80 L 83.60 304.30 L 87.40 305.00 L 87.40 305.70 L 87.00 305.90 Z" fill="#44d690" fill-rule="nonzero" group-id="1" id="Path" node-id="12" stroke="none" target-height="6.399994" target-width="9.200005" target-x="78.2" target-y="299.5"></path><path d="M 86.60 314.20 L 86.10 313.90 L 86.40 313.30 L 91.60 310.30 L 95.20 306.90 L 96.10 305.50 L 96.90 302.50 L 97.40 302.00 L 97.90 302.60 L 97.10 305.80 L 94.40 309.30 L 90.40 312.30 L 86.60 314.20 Z" fill="#44d690" fill-rule="nonzero" group-id="1" id="Path" node-id="13" stroke="none" target-height="12.200012" target-width="11.800003" target-x="86.1" target-y="302"></path></g><g node-id="156"><g node-id="164"><path d="M 485.70 308.70 L 482.60 301.10 L 480.10 292.90 L 479.50 288.80 L 479.40 284.70 L 479.80 282.10 L 480.60 279.50 L 481.80 277.00 L 483.40 274.70 L 485.60 272.50 L 491.40 268.20 L 493.40 266.40 L 494.50 264.80 L 495.30 263.00 L 495.70 261.30 L 495.60 259.70 L 494.90 257.10 L 490.90 248.00 L 489.60 243.20 L 489.30 240.40 L 489.90 235.10 L 490.70 233.00 L 492.40 230.00 L 494.40 227.50 L 502.60 219.50 L 503.90 216.90 L 503.40 203.10 L 503.50 196.70 L 504.20 191.80 L 505.90 188.70 L 507.30 187.40 L 510.70 185.70 L 514.60 185.20 L 516.60 185.60 L 518.60 186.50 L 520.40 187.70 L 522.20 189.60 L 523.80 192.20 L 525.00 195.00 L 526.00 198.70 L 528.10 216.90 L 530.00 224.50 L 532.90 231.40 L 538.70 240.70 L 539.40 242.90 L 539.50 245.00 L 538.50 249.30 L 535.60 254.70 L 529.60 263.90 L 528.70 265.90 L 528.00 269.40 L 528.40 271.80 L 529.10 273.60 L 533.80 280.70 L 534.80 283.00 L 535.70 286.30 L 536.10 290.00 L 536.10 295.20 L 535.70 299.80 L 534.80 304.00 L 533.50 308.00 L 531.90 311.80 L 530.00 315.20 L 527.80 318.20 L 525.40 320.90 L 522.80 323.00 L 520.10 324.70 L 517.30 326.00 L 514.40 326.60 L 511.60 326.70 L 508.50 326.20 L 504.90 325.20 L 501.20 323.60 L 497.40 321.50 L 493.90 319.00 L 490.60 315.90 L 488.70 313.70 L 485.70 308.70 Z" fill="#dceefd" fill-rule="nonzero" group-id="2,10" id="Path" node-id="16" stroke="none" target-height="141.50002" target-width="60.100006" target-x="479.4" target-y="185.2"></path><path d="M 515.30 332.90 L 516.10 332.30 L 516.10 331.30 L 509.30 308.00 L 508.20 302.00 L 507.50 294.00 L 507.60 290.00 L 508.30 284.30 L 509.30 278.50 L 514.20 256.10 L 515.60 246.20 L 515.80 241.60 L 514.80 232.90 L 514.60 227.90 L 514.80 218.20 L 515.90 205.30 L 515.80 203.00 L 515.50 202.60 L 514.90 202.50 L 514.40 202.80 L 514.30 203.40 L 513.10 222.90 L 513.30 233.00 L 514.30 241.70 L 514.10 246.20 L 512.70 255.90 L 507.80 278.20 L 506.70 284.10 L 506.10 289.90 L 505.90 294.00 L 506.60 302.20 L 507.80 308.30 L 509.20 313.90 L 514.00 329.00 L 514.70 332.60 L 515.30 332.90 Z" fill="#d0e7fe" fill-rule="nonzero" group-id="2,10" id="Path" node-id="17" stroke="none" target-height="130.4" target-width="10.199982" target-x="505.9" target-y="202.5"></path><path d="M 517.00 253.00 L 518.90 252.80 L 522.00 251.00 L 523.20 249.80 L 524.90 247.40 L 524.90 246.80 L 524.50 246.40 L 523.90 246.30 L 523.50 246.70 L 522.10 248.70 L 519.90 250.70 L 518.40 251.30 L 516.80 251.50 L 514.30 251.00 L 513.90 251.50 L 513.90 252.00 L 514.30 252.50 L 517.00 253.00 Z" fill="#d0e7fe" fill-rule="nonzero" group-id="2,10" id="Path" node-id="18" stroke="none" target-height="6.699997" target-width="11" target-x="513.9" target-y="246.3"></path><path d="M 514.90 240.40 L 515.70 239.70 L 515.60 239.20 L 512.50 238.00 L 509.00 236.00 L 507.30 234.50 L 505.80 232.60 L 504.40 229.70 L 503.80 229.70 L 503.30 230.10 L 503.30 230.70 L 504.50 233.40 L 506.10 235.40 L 509.80 238.40 L 514.90 240.40 Z" fill="#d0e7fe" fill-rule="nonzero" group-id="2,10" id="Path" node-id="19" stroke="none" target-height="10.699997" target-width="12.400024" target-x="503.3" target-y="229.7"></path><path d="M 506.80 290.70 L 510.50 290.20 L 512.70 289.50 L 514.90 288.50 L 517.10 287.00 L 519.30 284.00 L 520.20 282.00 L 520.10 281.40 L 519.60 281.00 L 519.10 281.10 L 518.70 281.50 L 518.00 283.30 L 515.90 285.90 L 514.00 287.30 L 512.10 288.20 L 506.30 289.40 L 506.10 289.90 L 506.30 290.40 L 506.80 290.70 Z" fill="#d0e7fe" fill-rule="nonzero" group-id="2,10" id="Path" node-id="20" stroke="none" target-height="9.700012" target-width="14.100006" target-x="506.1" target-y="281"></path><path d="M 507.50 303.30 L 508.20 302.80 L 508.20 302.20 L 507.80 301.80 L 499.90 297.30 L 495.40 293.30 L 492.70 289.30 L 491.90 285.60 L 491.60 285.10 L 491.10 284.90 L 490.50 285.10 L 490.30 285.70 L 491.20 289.70 L 494.00 294.10 L 496.20 296.30 L 501.10 300.00 L 507.50 303.30 Z" fill="#d0e7fe" fill-rule="nonzero" group-id="2,10" id="Path" node-id="21" stroke="none" target-height="18.399994" target-width="17.900024" target-x="490.3" target-y="284.9"></path></g><g node-id="165"><path d="M 302.80 325.70 L 298.70 324.90 L 296.80 324.00 L 294.30 322.10 L 292.10 319.90 L 290.30 317.30 L 288.90 314.60 L 287.40 309.70 L 287.30 307.70 L 287.70 306.50 L 289.10 305.70 L 291.50 306.70 L 296.10 309.70 L 297.60 310.00 L 298.20 309.00 L 297.30 307.00 L 288.70 296.00 L 287.20 292.80 L 287.40 291.20 L 288.20 290.60 L 289.80 290.40 L 291.20 291.00 L 294.90 293.70 L 295.90 294.20 L 296.40 294.00 L 296.40 293.40 L 295.60 291.90 L 288.10 281.20 L 286.80 278.00 L 287.10 276.40 L 288.40 275.70 L 290.00 276.50 L 293.60 279.90 L 294.80 279.70 L 295.00 279.20 L 294.70 277.10 L 290.40 266.50 L 289.60 263.60 L 289.20 261.20 L 289.40 259.70 L 289.80 258.50 L 290.70 257.70 L 291.60 257.30 L 292.50 257.50 L 293.60 258.20 L 295.00 259.90 L 296.70 262.60 L 305.30 281.60 L 306.50 283.50 L 307.30 284.10 L 308.60 283.70 L 309.60 282.70 L 316.10 274.20 L 319.30 270.90 L 320.30 270.40 L 321.10 270.40 L 321.90 270.80 L 322.30 271.50 L 322.20 273.90 L 321.50 276.10 L 312.90 293.30 L 311.80 296.60 L 312.00 297.80 L 312.90 298.00 L 314.30 297.60 L 321.40 293.30 L 324.90 291.90 L 326.70 292.30 L 327.50 293.00 L 327.90 293.90 L 327.50 296.30 L 326.60 298.10 L 325.10 300.20 L 318.60 307.20 L 317.60 308.90 L 318.20 309.10 L 319.80 309.00 L 326.10 307.60 L 329.10 307.70 L 330.30 308.80 L 330.30 309.70 L 328.90 312.90 L 327.60 314.60 L 323.40 318.50 L 318.00 322.00 L 314.60 323.50 L 311.00 324.60 L 307.10 325.40 L 302.80 325.70 Z" fill="#8ae6b9" fill-rule="nonzero" group-id="2,11" id="Path" node-id="23" stroke="none" target-height="68.400024" target-width="43.5" target-x="286.8" target-y="257.3"></path><path d="M 308.20 332.10 L 307.60 331.80 L 307.60 331.30 L 308.70 322.90 L 308.40 312.90 L 306.30 302.10 L 305.10 297.80 L 301.50 288.80 L 301.70 288.00 L 302.50 288.30 L 306.20 297.40 L 308.70 307.20 L 309.60 312.80 L 310.00 318.90 L 309.90 323.00 L 308.70 331.60 L 308.20 332.10 Z" fill="#45d48f" fill-rule="nonzero" group-id="2,11" id="Path" node-id="24" stroke="none" target-height="44.100006" target-width="8.5" target-x="301.5" target-y="288"></path><path d="M 322.30 306.50 L 322.50 304.70 L 323.90 301.60 L 325.50 299.70 L 331.00 294.80 L 331.90 293.70 L 332.60 291.30 L 332.20 289.80 L 331.20 288.40 L 323.70 282.50 L 321.80 280.70 L 319.60 277.20 L 318.90 273.70 L 319.10 271.80 L 320.30 269.10 L 321.80 267.50 L 323.70 266.10 L 329.70 262.80 L 331.20 261.60 L 332.40 259.50 L 332.60 258.10 L 332.30 255.60 L 331.50 253.70 L 326.80 247.10 L 325.90 243.90 L 325.70 241.80 L 326.50 237.70 L 327.70 234.90 L 332.50 226.20 L 338.90 217.80 L 342.50 214.00 L 345.70 211.30 L 347.90 209.80 L 349.80 209.00 L 351.40 208.70 L 352.80 209.00 L 354.40 209.80 L 356.00 211.10 L 358.20 213.70 L 360.30 217.10 L 363.80 224.90 L 366.20 232.70 L 366.90 236.30 L 366.90 240.20 L 365.70 242.80 L 364.30 244.60 L 356.60 250.90 L 355.20 252.50 L 354.40 253.60 L 353.80 256.00 L 354.00 257.20 L 355.20 259.20 L 356.60 260.40 L 364.30 264.70 L 365.70 265.90 L 366.90 267.90 L 367.10 269.10 L 366.40 271.50 L 363.70 274.50 L 354.40 281.30 L 352.70 282.80 L 351.20 284.80 L 351.00 285.70 L 351.80 287.80 L 358.90 294.30 L 360.80 296.50 L 361.70 298.20 L 362.40 300.10 L 362.60 302.20 L 362.30 305.00 L 361.40 308.30 L 360.00 311.70 L 356.30 318.80 L 351.80 324.70 L 349.70 326.70 L 346.80 328.50 L 345.70 328.60 L 343.90 328.30 L 338.30 325.40 L 331.90 320.50 L 328.90 317.60 L 324.20 311.80 L 323.10 309.80 L 322.30 306.50 Z" fill="#9e95e3" fill-rule="nonzero" group-id="2,11" id="Path" node-id="25" stroke="none" target-height="119.90001" target-width="48.200012" target-x="318.9" target-y="208.7"></path><path d="M 346.50 335.80 L 345.90 335.30 L 342.70 313.90 L 341.00 291.70 L 340.80 281.10 L 341.10 271.20 L 342.40 256.60 L 344.30 246.70 L 345.90 241.30 L 346.20 241.00 L 347.00 241.30 L 347.00 241.80 L 344.50 251.60 L 342.80 264.00 L 342.00 281.20 L 342.20 291.70 L 343.00 304.80 L 345.30 323.90 L 347.10 335.10 L 347.00 335.60 L 346.50 335.80 Z" fill="#877cd8" fill-rule="nonzero" group-id="2,11" id="Path" node-id="26" stroke="none" target-height="94.79999" target-width="6.3000183" target-x="340.8" target-y="241"></path></g></g><path d="M 280.90 369.30 L 276.00 369.00 L 270.70 368.20 L 264.70 366.70 L 260.50 365.10 L 256.50 363.20 L 252.90 360.90 L 249.50 358.10 L 246.30 354.90 L 243.30 351.30 L 240.60 347.10 L 238.00 342.30 L 235.70 336.90 L 233.70 330.80 L 232.10 324.00 L 230.80 316.50 L 229.90 308.10 L 229.40 299.30 L 229.80 283.20 L 230.20 276.60 L 232.10 262.10 L 238.30 263.20 L 236.60 276.90 L 236.10 283.30 L 235.80 298.80 L 236.20 307.30 L 237.10 315.80 L 238.60 324.30 L 240.00 329.80 L 241.80 335.00 L 243.90 340.00 L 246.50 344.70 L 249.50 348.90 L 252.90 352.70 L 255.80 355.20 L 259.00 357.30 L 262.60 359.20 L 266.50 360.60 L 271.50 361.90 L 276.00 362.70 L 280.10 362.90 L 283.80 362.80 L 287.60 362.20 L 294.60 360.00 L 297.90 358.40 L 302.10 355.80 L 306.30 352.70 L 310.60 349.00 L 337.50 321.90 L 343.60 316.60 L 349.80 312.00 L 355.80 308.20 L 362.20 304.90 L 368.30 302.10 L 374.30 300.00 L 380.40 298.20 L 391.40 295.80 L 399.30 294.90 L 405.70 294.50 L 411.70 294.50 L 420.10 295.20 L 419.10 301.50 L 411.80 300.90 L 406.30 300.90 L 400.20 301.30 L 387.70 303.00 L 376.60 306.00 L 370.90 308.00 L 365.10 310.60 L 359.10 313.70 L 353.30 317.30 L 347.60 321.50 L 341.80 326.50 L 317.00 351.60 L 311.50 356.60 L 306.10 360.80 L 302.30 363.30 L 298.40 365.30 L 294.40 367.00 L 290.20 368.20 L 285.70 369.00 L 280.90 369.30 Z" fill="#c3d3f3" fill-rule="nonzero" id="Path" node-id="27" stroke="none" target-height="107.19998" target-width="190.70001" target-x="229.4" target-y="262.1"></path><g node-id="157"><path d="M 547.50 122.30 L 551.30 121.60 L 554.60 119.70 L 557.00 116.80 L 558.30 113.30 L 558.50 111.30 L 558.30 108.20 L 556.80 102.70 L 555.50 100.10 L 553.30 97.00 L 550.70 94.40 L 547.60 92.20 L 545.00 90.90 L 539.50 89.40 L 535.90 89.20 L 534.70 85.10 L 533.00 81.30 L 530.70 77.90 L 527.90 74.80 L 524.80 72.20 L 521.20 70.00 L 515.30 67.80 L 508.80 67.10 L 505.00 67.30 L 501.30 68.10 L 497.90 69.40 L 494.60 71.10 L 490.90 65.60 L 486.10 61.10 L 480.20 57.90 L 477.10 56.90 L 473.70 56.20 L 470.10 56.00 L 466.80 56.20 L 463.60 56.80 L 457.80 59.00 L 454.20 61.10 L 451.00 63.70 L 448.30 66.80 L 446.00 70.30 L 444.30 74.00 L 443.10 78.20 L 438.70 78.40 L 435.20 79.10 L 431.80 80.30 L 428.60 81.90 L 425.70 83.90 L 423.00 86.20 L 420.70 88.90 L 418.70 91.80 L 417.10 95.00 L 415.90 98.40 L 415.20 101.90 L 414.90 105.70 L 415.20 108.80 L 416.00 111.50 L 417.20 114.10 L 418.80 116.40 L 420.80 118.40 L 423.10 120.10 L 425.70 121.30 L 428.50 122.00 L 431.50 122.30 L 547.50 122.30 Z" fill="#f3f9ff" fill-rule="nonzero" group-id="3" id="Path" node-id="29" stroke="none" target-height="66.3" target-width="143.6" target-x="414.9" target-y="56"></path></g><g node-id="158"><path d="M 320.80 114.50 L 320.40 122.40 L 319.50 130.00 L 318.00 137.30 L 316.00 144.40 L 313.30 151.40 L 310.20 158.00 L 306.60 164.30 L 302.50 170.40 L 298.00 176.10 L 293.10 181.40 L 287.80 186.30 L 282.10 190.80 L 276.10 194.90 L 269.70 198.50 L 263.10 201.60 L 256.10 204.20 L 249.00 206.30 L 241.70 207.80 L 234.10 208.70 L 226.30 209.10 L 218.40 208.70 L 210.90 207.80 L 203.50 206.30 L 196.40 204.20 L 189.50 201.60 L 182.80 198.50 L 176.50 194.90 L 170.50 190.80 L 164.80 186.30 L 159.50 181.40 L 154.60 176.10 L 150.00 170.40 L 146.00 164.30 L 142.40 158.00 L 139.30 151.40 L 136.60 144.40 L 134.60 137.30 L 133.10 130.00 L 132.10 122.40 L 131.80 114.50 L 132.10 106.70 L 133.10 99.10 L 134.60 91.80 L 136.60 84.60 L 139.30 77.70 L 142.40 71.10 L 146.00 64.70 L 150.00 58.70 L 154.60 53.00 L 159.50 47.70 L 164.80 42.80 L 170.50 38.20 L 176.50 34.20 L 182.80 30.60 L 189.50 27.50 L 196.40 24.80 L 203.50 22.70 L 210.90 21.30 L 218.40 20.30 L 226.30 20.00 L 234.10 20.30 L 241.70 21.30 L 249.00 22.70 L 256.10 24.80 L 263.10 27.50 L 269.70 30.60 L 276.10 34.20 L 282.10 38.20 L 287.80 42.80 L 293.10 47.70 L 298.00 53.00 L 302.50 58.70 L 306.60 64.70 L 310.20 71.10 L 313.30 77.70 L 316.00 84.60 L 318.00 91.80 L 319.50 99.10 L 320.40 106.70 L 320.80 114.50 Z" fill="#fff9de" fill-rule="nonzero" group-id="4" id="Oval" node-id="31" stroke="none" target-height="189.1" target-width="188.99998" target-x="131.8" target-y="20"></path><path d="M 307.30 115.10 L 307.00 121.80 L 306.20 128.30 L 304.90 134.60 L 303.10 140.70 L 300.90 146.70 L 298.20 152.30 L 295.10 157.80 L 291.60 162.90 L 287.80 167.80 L 283.60 172.40 L 279.00 176.60 L 274.10 180.50 L 268.90 184.00 L 263.50 187.00 L 257.80 189.70 L 251.90 192.00 L 245.80 193.70 L 239.50 195.00 L 233.00 195.80 L 226.30 196.10 L 219.60 195.80 L 213.10 195.00 L 206.80 193.70 L 200.70 192.00 L 194.70 189.70 L 189.00 187.00 L 183.60 184.00 L 178.50 180.50 L 173.60 176.60 L 169.00 172.40 L 164.80 167.80 L 160.90 162.90 L 157.40 157.80 L 154.40 152.30 L 151.70 146.70 L 149.40 140.70 L 147.70 134.60 L 146.40 128.30 L 145.60 121.80 L 145.30 115.10 L 145.60 108.40 L 146.40 101.90 L 147.70 95.60 L 149.40 89.50 L 151.70 83.50 L 154.40 77.80 L 157.40 72.40 L 160.90 67.20 L 164.80 62.30 L 169.00 57.80 L 173.60 53.60 L 178.50 49.70 L 183.60 46.20 L 189.00 43.10 L 194.70 40.50 L 200.70 38.20 L 206.80 36.40 L 213.10 35.10 L 219.60 34.30 L 226.30 34.10 L 233.00 34.30 L 239.50 35.10 L 245.80 36.40 L 251.90 38.20 L 257.80 40.50 L 263.50 43.10 L 268.90 46.20 L 274.10 49.70 L 279.00 53.60 L 283.60 57.80 L 287.80 62.30 L 291.60 67.20 L 295.10 72.40 L 298.20 77.80 L 300.90 83.50 L 303.10 89.50 L 304.90 95.60 L 306.20 101.90 L 307.00 108.40 L 307.30 115.10 Z" fill="#fef0b9" fill-rule="nonzero" group-id="4" id="Oval" node-id="32" stroke="none" target-height="162" target-width="161.99998" target-x="145.3" target-y="34.1"></path><g node-id="166"><path d="M 214.30 54.60 L 208.30 56.10 L 202.50 58.20 L 197.10 60.80 L 191.80 64.00 L 187.00 67.60 L 182.50 71.80 L 178.50 76.30 L 174.90 81.10 L 171.80 86.40 L 169.20 91.90 L 167.10 97.70 L 165.70 103.80 L 164.80 110.20 L 164.60 116.40 L 164.90 122.40 L 165.80 128.30 L 167.30 134.00 L 169.30 139.50 L 171.70 144.70 L 178.40 155.90 L 181.70 162.40 L 184.50 169.10 L 186.80 176.00 L 188.60 183.00 L 190.00 190.10 L 190.90 197.30 L 191.30 209.10 L 262.40 209.10 L 262.90 198.20 L 263.60 191.80 L 266.10 179.20 L 267.80 173.10 L 270.00 167.00 L 272.50 161.20 L 275.40 155.50 L 281.80 144.90 L 284.30 139.60 L 286.40 133.90 L 287.90 128.10 L 288.80 122.00 L 289.10 115.70 L 288.80 109.90 L 288.10 104.30 L 286.90 99.00 L 285.20 93.80 L 283.00 88.80 L 280.50 84.00 L 277.60 79.50 L 274.30 75.30 L 270.60 71.40 L 266.70 67.80 L 262.40 64.60 L 257.90 61.70 L 253.10 59.20 L 248.10 57.10 L 242.90 55.50 L 237.40 54.30 L 231.90 53.60 L 226.30 53.40 L 220.40 53.70 L 214.30 54.60 Z" fill="#ffcb01" fill-rule="nonzero" group-id="4,12" id="Path" node-id="34" stroke="none" target-height="155.70001" target-width="124.5" target-x="164.6" target-y="53.4"></path><path d="M 200.50 144.40 L 200.50 107.80 L 200.70 105.80 L 201.50 104.10 L 202.60 102.60 L 204.10 101.40 L 205.80 100.70 L 207.80 100.40 L 244.50 100.40 L 244.50 114.20 L 244.80 115.30 L 245.70 116.20 L 246.80 116.40 L 252.50 113.50 L 253.60 113.30 L 255.60 113.60 L 257.30 114.50 L 258.80 115.90 L 260.00 117.80 L 260.70 120.00 L 261.00 122.40 L 260.70 124.90 L 260.00 127.10 L 258.80 128.90 L 257.30 130.30 L 255.60 131.30 L 253.60 131.60 L 252.50 131.40 L 246.80 128.50 L 245.70 128.70 L 244.80 129.50 L 244.50 130.70 L 244.50 144.40 L 230.70 144.40 L 229.50 144.10 L 228.70 143.20 L 228.50 142.10 L 231.40 136.40 L 231.60 135.30 L 231.30 133.30 L 230.40 131.60 L 229.00 130.10 L 227.10 128.90 L 224.90 128.20 L 222.50 127.90 L 220.00 128.20 L 217.80 128.90 L 216.00 130.10 L 214.60 131.60 L 213.60 133.30 L 213.30 135.30 L 213.50 136.40 L 216.40 142.10 L 216.20 143.20 L 215.40 144.10 L 214.30 144.40 L 200.50 144.40 Z" fill="#ffffff" fill-rule="nonzero" group-id="4,12" id="Path" node-id="35" stroke="none" target-height="43.999992" target-width="60.5" target-x="200.5" target-y="100.4"></path><path d="M 253.50 249.20 L 244.60 267.00 L 209.00 267.00 L 200.10 249.20 Z" fill="#355aa2" fill-rule="nonzero" group-id="4,12" id="Path" node-id="36" stroke="none" target-height="17.800003" target-width="53.399994" target-x="200.1" target-y="249.2"></path><path d="M 254.20 249.20 L 199.50 249.20 L 196.30 248.90 L 193.50 248.10 L 190.80 246.80 L 188.40 245.10 L 186.40 243.10 L 184.70 240.70 L 183.40 238.10 L 182.70 235.20 L 182.40 232.10 L 182.60 208.60 L 183.10 207.40 L 185.00 205.40 L 187.80 204.70 L 265.90 204.70 L 268.60 205.40 L 270.60 207.40 L 271.30 210.10 L 271.30 232.10 L 271.00 235.20 L 270.30 238.10 L 269.00 240.70 L 267.30 243.10 L 265.30 245.10 L 262.90 246.80 L 260.20 248.10 L 257.30 248.90 L 254.20 249.20 Z" fill="#224380" fill-rule="nonzero" group-id="4,12" id="Path" node-id="37" stroke="none" target-height="44.5" target-width="88.899994" target-x="182.4" target-y="204.7"></path><path d="M 200.10 249.20 L 247.90 260.50 L 253.50 249.20 Z" fill="#183168" fill-rule="nonzero" group-id="4,12" id="Path" node-id="38" stroke="none" target-height="11.300003" target-width="53.399994" target-x="200.1" target-y="249.2"></path><g node-id="171"><path d="M 256.40 114.00 L 257.60 117.30 L 257.80 119.30 L 257.50 121.70 L 256.80 123.90 L 255.60 125.80 L 254.20 127.20 L 252.40 128.10 L 250.50 128.40 L 247.80 127.60 L 243.70 125.30 L 242.50 125.50 L 241.60 126.40 L 241.30 127.50 L 241.30 141.30 L 228.70 141.30 L 228.50 142.30 L 228.70 143.20 L 229.50 144.10 L 230.70 144.40 L 244.50 144.40 L 244.50 130.70 L 244.80 129.50 L 245.70 128.70 L 246.80 128.50 L 250.90 130.70 L 253.60 131.60 L 255.60 131.30 L 257.30 130.30 L 258.80 128.90 L 260.00 127.10 L 260.70 124.90 L 261.00 122.40 L 260.80 120.50 L 259.70 117.30 L 258.80 115.90 L 256.40 114.00 Z" fill="#f0b701" fill-rule="nonzero" group-id="4,12,17" node-id="145" stroke="none" target-height="30.399994" target-width="32.5" target-x="228.5" target-y="114"></path><path d="M 242.20 112.80 L 244.90 115.60 L 244.50 113.00 L 244.50 100.40 L 241.30 100.40 L 241.30 111.00 L 241.50 112.00 L 242.20 112.80 Z" fill="#f0b701" fill-rule="nonzero" group-id="4,12,17" node-id="147" stroke="none" target-height="15.199997" target-width="3.5999908" target-x="241.3" target-y="100.4"></path><path d="M 245.10 115.80 L 244.90 115.60 Z" fill="#f0b701" fill-rule="nonzero" group-id="4,12,17" node-id="149" stroke="none" target-height="0.20000458" target-width="0.2000122" target-x="244.9" target-y="115.6"></path><path d="M 229.80 130.90 L 228.70 129.90 L 229.80 130.90 Z" fill="#f0b701" fill-rule="nonzero" group-id="4,12,17" node-id="151" stroke="none" target-height="1" target-width="1.1000061" target-x="228.7" target-y="129.9"></path><path d="M 228.70 129.90 L 226.30 127.30 L 223.20 125.50 L 219.30 124.80 L 216.90 125.00 L 214.70 125.80 L 212.80 126.90 L 211.40 128.40 L 210.50 130.20 L 210.20 132.10 L 211.00 134.80 L 212.90 137.80 L 213.30 138.90 L 213.10 140.10 L 212.20 141.00 L 211.10 141.30 L 200.50 141.30 L 200.50 144.40 L 214.30 144.40 L 215.40 144.10 L 216.20 143.20 L 216.40 142.10 L 214.20 138.00 L 213.30 135.30 L 213.60 133.30 L 214.60 131.60 L 216.00 130.10 L 217.80 128.90 L 220.00 128.20 L 222.50 127.90 L 224.40 128.10 L 226.20 128.60 L 228.70 129.90 Z" fill="#f0b701" fill-rule="nonzero" group-id="4,12,17" node-id="153" stroke="none" target-height="19.59999" target-width="28.199997" target-x="200.5" target-y="124.8"></path></g></g></g><g node-id="159"><path d="M 309.00 380.40 L 312.60 379.80 L 276.00 149.60 L 272.50 150.10 L 274.40 162.00 L 231.30 162.00 L 229.30 149.60 L 225.80 150.10 L 262.30 380.40 L 265.90 379.80 L 263.80 366.90 L 306.90 366.90 L 309.00 380.40 Z M 254.60 308.90 L 297.70 308.90 L 301.70 334.30 L 258.70 334.30 L 254.60 308.90 Z M 254.10 305.30 L 249.60 277.00 L 292.60 277.00 L 297.10 305.30 L 254.10 305.30 Z M 287.60 245.50 L 244.60 245.50 L 240.60 220.80 L 283.70 220.80 L 287.60 245.50 Z M 288.20 249.10 L 292.10 273.40 L 249.00 273.40 L 245.10 249.10 L 288.20 249.10 Z M 274.90 165.60 L 278.20 186.10 L 235.10 186.10 L 231.90 165.60 L 274.90 165.60 Z M 278.80 189.70 L 283.10 217.20 L 240.10 217.20 L 235.70 189.70 L 278.80 189.70 Z M 263.30 363.30 L 259.20 337.90 L 302.30 337.90 L 306.30 363.30 L 263.30 363.30 Z" fill="#183168" fill-rule="nonzero" group-id="5" id="Shape" node-id="46" stroke="none" target-height="230.79999" target-width="86.8" target-x="225.8" target-y="149.6"></path><g node-id="167"><path d="M 280.80 326.30 L 282.80 331.10 L 284.70 332.10 L 285.50 332.10 L 287.10 331.20 L 287.80 329.80 L 286.80 325.80 L 285.70 325.40 L 280.80 326.30 Z" fill="#f1b282" fill-rule="nonzero" group-id="5,13" id="Path" node-id="48" stroke="none" target-height="6.700012" target-width="7" target-x="280.8" target-y="325.4"></path><path d="M 288.10 326.60 L 279.70 326.60 L 267.10 286.90 L 265.70 281.40 L 262.90 264.60 L 262.00 255.90 L 261.70 248.70 L 262.00 246.90 L 262.60 245.60 L 263.50 244.60 L 266.00 243.60 L 267.70 243.50 L 270.10 243.80 L 272.70 244.60 L 275.10 245.80 L 277.20 247.30 L 279.10 249.80 L 279.50 251.10 L 280.60 258.40 L 281.10 264.80 L 281.00 276.10 L 280.10 288.90 L 281.40 292.30 L 283.80 301.50 L 286.60 316.30 L 288.10 326.60 Z" fill="#102b5e" fill-rule="nonzero" group-id="5,13" id="Path" node-id="49" stroke="none" target-height="83.100006" target-width="26.399994" target-x="261.7" target-y="243.5"></path><path d="M 256.00 187.10 L 255.60 188.60 L 255.60 191.40 L 254.60 195.10 L 255.80 197.30 L 256.00 200.30 L 256.40 201.20 L 256.90 201.70 L 259.20 202.50 L 259.80 203.30 L 258.30 208.90 L 269.50 209.10 L 268.90 201.60 L 269.40 192.80 L 269.00 188.80 L 268.40 187.30 L 267.70 186.60 L 266.60 186.20 L 261.30 185.50 L 257.90 185.80 L 256.70 186.40 L 256.00 187.10 Z" fill="#f1b282" fill-rule="nonzero" group-id="5,13" id="Path" node-id="50" stroke="none" target-height="23.600006" target-width="14.899994" target-x="254.6" target-y="185.5"></path><path d="M 261.90 182.00 L 266.30 182.40 L 269.30 183.10 L 271.10 183.90 L 272.50 185.00 L 273.50 186.30 L 274.70 189.70 L 274.90 194.40 L 274.50 196.80 L 273.80 199.00 L 272.80 200.80 L 271.90 201.80 L 270.10 202.60 L 264.30 202.00 L 262.50 201.10 L 261.70 199.50 L 260.80 193.40 L 260.40 192.50 L 255.90 189.70 L 254.80 187.00 L 254.60 184.60 L 254.90 182.30 L 255.40 181.20 L 256.10 180.70 L 257.10 180.70 L 261.90 182.00 Z" fill="#0b224e" fill-rule="nonzero" group-id="5,13" id="Path" node-id="51" stroke="none" target-height="21.90001" target-width="20.299988" target-x="254.6" target-y="180.7"></path><path d="M 282.80 179.90 L 283.80 174.30 L 283.70 173.00 L 282.80 171.40 L 280.30 170.30 L 278.50 170.00 L 275.30 170.60 L 274.00 171.70 L 273.80 174.10 L 274.60 176.20 L 278.10 179.60 L 279.20 181.10 L 280.20 181.40 L 281.80 181.10 L 282.80 179.90 Z" fill="#f1b282" fill-rule="nonzero" group-id="5,13" id="Path" node-id="52" stroke="none" target-height="11.399994" target-width="10" target-x="273.8" target-y="170"></path><path d="M 220.90 205.80 L 215.60 203.40 L 214.60 202.60 L 213.70 201.00 L 214.10 198.40 L 215.00 196.80 L 217.30 194.50 L 218.90 194.10 L 221.10 195.40 L 222.40 197.10 L 223.30 201.80 L 224.00 203.60 L 223.70 204.60 L 222.60 205.70 L 220.90 205.80 Z" fill="#f1b282" fill-rule="nonzero" group-id="5,13" id="Path" node-id="53" stroke="none" target-height="11.699997" target-width="10.300003" target-x="213.7" target-y="194.1"></path><path d="M 258.20 318.90 L 260.90 323.40 L 263.00 324.00 L 263.80 323.90 L 265.20 322.70 L 265.60 321.20 L 264.00 317.40 L 262.90 317.20 L 258.20 318.90 Z" fill="#f1b282" fill-rule="nonzero" group-id="5,13" id="Path" node-id="54" stroke="none" target-height="6.799988" target-width="7.399994" target-x="258.2" target-y="317.2"></path><path d="M 254.00 249.20 L 244.50 265.20 L 240.80 272.40 L 239.20 277.10 L 239.50 279.40 L 240.50 283.10 L 243.80 291.70 L 248.10 301.20 L 257.00 318.90 L 265.10 317.10 L 259.40 298.90 L 256.20 290.20 L 253.10 283.30 L 256.20 279.30 L 266.00 268.30 L 269.60 263.10 L 270.90 260.40 L 271.90 257.50 L 272.40 254.20 L 272.50 250.60 L 271.60 249.30 L 268.50 248.50 L 260.40 248.50 L 254.00 249.20 Z" fill="#0b224e" fill-rule="nonzero" group-id="5,13" id="Path" node-id="55" stroke="none" target-height="70.399994" target-width="33.300003" target-x="239.2" target-y="248.5"></path><path d="M 268.30 207.20 L 258.80 207.20 L 254.20 207.90 L 236.50 215.30 L 224.10 201.90 L 218.50 205.60 L 223.00 212.00 L 227.40 217.50 L 229.80 220.20 L 233.80 223.60 L 236.50 224.70 L 241.00 225.00 L 246.20 224.50 L 251.20 223.10 L 250.80 228.50 L 248.80 244.50 L 248.70 248.20 L 249.00 251.10 L 249.50 252.70 L 250.30 253.70 L 251.20 254.20 L 257.70 254.50 L 268.20 254.00 L 271.10 254.20 L 277.20 255.60 L 278.80 255.70 L 280.40 255.00 L 281.00 254.10 L 281.20 251.40 L 280.90 248.80 L 277.90 239.80 L 277.60 237.80 L 277.60 235.50 L 278.10 232.90 L 279.40 229.30 L 287.40 213.80 L 289.60 207.20 L 290.00 203.80 L 289.90 200.50 L 287.50 189.40 L 284.30 178.80 L 278.00 179.80 L 280.00 194.10 L 281.30 200.50 L 279.10 205.30 L 276.10 209.30 L 275.40 209.70 L 274.40 209.40 L 270.10 207.40 L 268.30 207.20 Z" fill="#1b90fb" fill-rule="nonzero" group-id="5,13" id="Path" node-id="56" stroke="none" target-height="76.899994" target-width="71.5" target-x="218.5" target-y="178.8"></path><path d="M 287.80 328.60 L 288.80 329.30 L 289.10 330.10 L 289.50 333.90 L 289.10 335.70 L 287.70 336.30 L 274.70 335.10 L 271.40 333.70 L 270.50 332.50 L 270.50 331.90 L 271.30 331.30 L 274.10 331.40 L 275.90 331.10 L 280.60 328.00 L 283.40 329.20 L 287.80 328.60 Z" fill="#0b224e" fill-rule="nonzero" group-id="5,13" id="Path" node-id="57" stroke="none" target-height="8.299988" target-width="19" target-x="270.5" target-y="328"></path><path d="M 265.60 319.90 L 266.70 320.60 L 267.20 321.50 L 268.20 325.50 L 268.20 327.20 L 267.80 327.70 L 266.90 328.10 L 252.20 328.10 L 249.40 327.00 L 247.80 325.70 L 248.10 324.70 L 248.50 324.50 L 251.50 324.40 L 253.40 323.90 L 258.00 320.60 L 260.60 321.20 L 262.00 321.10 L 265.60 319.90 Z" fill="#0b224e" fill-rule="nonzero" group-id="5,13" id="Path" node-id="58" stroke="none" target-height="8.200012" target-width="20.40001" target-x="247.8" target-y="319.9"></path></g></g><g node-id="160"><path d="M 112.10 234.30 L 114.20 233.00 L 116.30 232.20 L 118.50 231.90 L 120.60 232.20 L 122.40 233.00 L 123.90 234.30 L 124.40 235.30 L 125.70 241.50 L 126.60 242.30 L 127.80 242.50 L 128.90 242.00 L 139.60 233.40 L 148.20 244.10 L 148.70 245.20 L 148.50 246.40 L 147.80 247.30 L 141.50 248.50 L 140.50 249.10 L 139.20 250.60 L 138.40 252.40 L 138.10 254.40 L 138.40 256.60 L 139.20 258.80 L 140.50 260.90 L 142.30 262.60 L 144.20 263.80 L 146.30 264.60 L 148.30 264.80 L 150.30 264.40 L 152.00 263.40 L 152.80 262.50 L 155.30 256.70 L 156.40 256.20 L 157.60 256.20 L 158.50 256.90 L 167.20 267.70 L 138.60 290.70 L 136.90 291.70 L 135.10 292.20 L 133.20 292.20 L 131.40 291.80 L 129.70 290.90 L 128.30 289.50 L 105.30 261.00 L 116.00 252.30 L 116.70 251.30 L 116.80 250.20 L 116.30 249.10 L 110.50 246.60 L 109.60 245.80 L 108.60 244.00 L 108.20 242.10 L 108.40 240.10 L 109.10 238.00 L 110.40 236.10 L 112.10 234.30 Z" fill="#ffcb01" fill-rule="nonzero" group-id="6" id="Path" node-id="60" stroke="none" target-height="60.30002" target-width="61.899994" target-x="105.3" target-y="231.9"></path></g><g node-id="161"><path d="M 117.40 294.50 L 123.80 310.50 L 126.60 319.50 L 127.80 324.00 L 128.50 328.20 L 129.10 334.70 L 130.70 362.30 L 131.50 369.30 L 132.10 371.70 L 132.70 372.60 L 139.90 377.60 L 138.10 378.90 L 129.00 377.40 L 127.10 376.60 L 120.40 348.70 L 119.30 340.00 L 119.20 334.90 L 113.00 324.20 L 113.20 309.20 L 113.90 302.00 L 115.20 296.60 L 115.90 295.30 L 116.60 294.70 L 117.40 294.50 Z" fill="#f1b282" fill-rule="nonzero" group-id="7" id="Path" node-id="62" stroke="none" target-height="84.399994" target-width="26.899994" target-x="113" target-y="294.5"></path><path d="M 126.90 375.00 L 126.50 375.30 L 126.50 377.00 L 127.90 379.80 L 132.50 379.80 L 132.50 378.60 L 137.70 379.80 L 141.80 379.50 L 143.00 379.10 L 142.10 378.30 L 139.20 377.00 L 136.70 378.20 L 126.90 375.00 Z" fill="#0b224e" fill-rule="nonzero" group-id="7" id="Path" node-id="63" stroke="none" target-height="4.799988" target-width="16.5" target-x="126.5" target-y="375"></path><path d="M 90.00 360.50 L 91.50 357.00 L 97.20 340.70 L 101.10 332.90 L 103.60 329.40 L 102.00 323.10 L 98.40 314.50 L 96.80 308.10 L 96.50 304.30 L 96.70 301.60 L 97.10 299.50 L 98.70 295.10 L 117.40 294.50 L 117.70 306.70 L 116.80 318.90 L 115.80 325.60 L 114.20 332.40 L 113.20 334.70 L 111.20 338.20 L 97.20 358.90 L 94.20 364.70 L 93.80 367.50 L 94.90 371.40 L 96.90 375.50 L 94.50 375.60 L 90.40 371.90 L 86.70 368.00 L 86.50 367.50 L 87.20 365.70 L 90.00 360.50 Z" fill="#f1b282" fill-rule="nonzero" group-id="7" id="Path" node-id="64" stroke="none" target-height="81.100006" target-width="31.199997" target-x="86.5" target-y="294.5"></path><path d="M 103.70 238.80 L 104.90 240.00 L 105.80 243.10 L 107.10 245.80 L 105.60 247.40 L 105.60 249.30 L 105.00 251.20 L 102.20 252.60 L 101.60 253.20 L 101.10 255.00 L 100.70 259.10 L 99.80 259.70 L 97.80 259.20 L 94.30 257.30 L 92.30 255.00 L 91.40 253.40 L 90.30 250.20 L 90.80 246.40 L 92.40 242.50 L 93.60 240.90 L 95.10 239.80 L 96.90 239.00 L 99.60 238.40 L 101.20 238.30 L 103.70 238.80 Z" fill="#f1b282" fill-rule="nonzero" group-id="7" id="Path" node-id="65" stroke="none" target-height="21.40001" target-width="16.799995" target-x="90.3" target-y="238.3"></path><path d="M 87.10 366.20 L 86.70 366.20 L 85.70 367.70 L 85.40 370.80 L 89.30 373.30 L 89.90 372.20 L 93.60 376.10 L 97.20 378.10 L 98.50 378.30 L 98.20 377.20 L 96.40 374.60 L 93.60 374.20 L 87.10 366.20 Z" fill="#0b224e" fill-rule="nonzero" group-id="7" id="Path" node-id="66" stroke="none" target-height="12.099976" target-width="13.099998" target-x="85.4" target-y="366.2"></path><path d="M 97.80 293.10 L 97.60 294.80 L 95.90 300.30 L 95.50 302.70 L 95.50 306.30 L 95.80 309.30 L 97.40 315.80 L 99.50 321.80 L 101.60 325.80 L 102.30 326.60 L 105.60 327.10 L 119.40 327.10 L 125.60 326.60 L 128.50 325.80 L 128.70 324.50 L 127.90 319.30 L 124.20 308.50 L 121.10 301.40 L 117.20 293.80 L 116.50 293.10 L 115.60 292.70 L 113.70 292.40 L 109.00 292.30 L 97.80 293.10 Z" fill="#0b224e" fill-rule="nonzero" group-id="7" id="Path" node-id="67" stroke="none" target-height="34.80002" target-width="33.199997" target-x="95.5" target-y="292.3"></path><path d="M 97.80 293.10 L 97.50 290.10 L 96.60 287.30 L 92.30 278.50 L 91.00 274.70 L 89.80 269.00 L 89.60 265.40 L 89.90 262.80 L 90.50 260.80 L 91.40 259.30 L 92.50 258.20 L 94.50 257.00 L 97.10 256.30 L 100.30 256.10 L 102.00 256.40 L 106.40 259.10 L 110.60 263.10 L 113.30 267.00 L 113.70 268.20 L 113.50 269.70 L 112.00 277.90 L 112.30 280.60 L 116.40 291.00 L 116.70 293.10 L 97.80 293.10 Z" fill="#1b90fb" fill-rule="nonzero" group-id="7" id="Path" node-id="68" stroke="none" target-height="37" target-width="27.099998" target-x="89.6" target-y="256.1"></path><path d="M 95.80 267.50 L 96.50 271.10 L 98.40 276.40 L 100.10 279.60 L 102.30 282.60 L 105.30 285.60 L 110.30 289.00 L 116.60 292.10 L 115.50 288.50 L 113.60 284.40 L 100.30 275.80 L 95.80 267.50 Z" fill="#1277d7" fill-rule="nonzero" group-id="7" id="Path" node-id="69" stroke="none" target-height="24.600006" target-width="20.799995" target-x="95.8" target-y="267.5"></path><path d="M 100.30 275.80 L 103.90 280.00 L 109.40 285.10 L 116.60 288.90 L 125.10 292.10 L 132.10 293.60 L 137.50 293.70 L 140.30 292.80 L 141.10 292.20 L 141.60 290.80 L 137.40 291.10 L 134.60 290.70 L 135.90 287.90 L 135.30 287.70 L 134.40 287.90 L 132.00 289.10 L 129.00 288.70 L 122.70 285.90 L 119.20 283.70 L 115.40 280.80 L 112.10 277.80 L 108.20 272.90 L 106.50 269.70 L 100.30 275.80 Z" fill="#f1b282" fill-rule="nonzero" group-id="7" id="Path" node-id="70" stroke="none" target-height="24" target-width="41.300003" target-x="100.3" target-y="269.7"></path><path d="M 104.10 239.70 L 105.60 239.20 L 106.30 238.60 L 106.80 237.80 L 107.10 236.50 L 106.20 234.10 L 105.10 233.00 L 103.10 231.70 L 98.60 230.50 L 95.00 230.80 L 93.20 231.50 L 91.70 232.50 L 90.30 233.90 L 88.70 236.40 L 83.30 249.20 L 81.80 251.30 L 78.60 254.40 L 77.90 255.90 L 77.60 259.20 L 78.70 262.60 L 80.30 265.00 L 82.20 267.00 L 83.60 268.00 L 86.60 268.90 L 88.70 268.70 L 90.60 268.20 L 94.20 266.00 L 96.60 262.90 L 97.30 261.20 L 97.50 259.40 L 97.10 257.60 L 94.80 249.50 L 94.90 246.80 L 95.70 246.20 L 97.40 246.50 L 98.00 246.30 L 101.10 240.80 L 102.80 239.80 L 104.10 239.70 Z" fill="#0b224e" fill-rule="nonzero" group-id="7" id="Path" node-id="71" stroke="none" target-height="38.399994" target-width="29.5" target-x="77.6" target-y="230.5"></path><path d="M 99.30 251.80 L 101.20 254.10 L 101.70 253.10 L 102.60 252.40 L 101.30 252.40 L 99.30 251.80 Z" fill="#cd916a" fill-rule="nonzero" group-id="7" id="Path" node-id="72" stroke="none" target-height="2.300003" target-width="3.2999954" target-x="99.3" target-y="251.8"></path></g><g node-id="162"><path d="M 411.10 273.80 L 415.00 282.90 L 417.80 286.10 L 422.00 289.20 L 426.50 291.90 L 430.10 293.50 L 432.90 293.70 L 437.90 293.00 L 440.50 293.20 L 440.80 293.70 L 440.60 294.30 L 438.00 296.00 L 437.40 296.50 L 437.30 297.00 L 437.70 297.70 L 441.80 301.20 L 442.10 302.80 L 441.40 304.00 L 440.30 305.10 L 437.60 306.10 L 436.40 305.90 L 435.20 305.10 L 430.40 300.50 L 429.20 299.60 L 418.90 295.50 L 412.90 292.30 L 410.20 290.20 L 407.20 287.10 L 403.00 281.40 L 400.80 277.40 L 403.70 275.40 L 405.80 274.40 L 408.30 273.80 L 411.10 273.80 Z" fill="#f1b282" fill-rule="nonzero" group-id="8" id="Path" node-id="74" stroke="none" target-height="32.30002" target-width="41.30002" target-x="400.8" target-y="273.8"></path><path d="M 406.80 263.80 L 409.30 269.40 L 411.40 273.90 L 413.40 277.20 L 413.60 278.10 L 412.20 281.30 L 408.30 286.50 L 407.10 287.60 L 406.70 287.90 L 406.30 287.60 L 404.00 283.10 L 402.00 278.30 L 403.90 269.40 L 405.80 265.00 L 406.80 263.80 Z" fill="#1eaf69" fill-rule="nonzero" group-id="8" id="Path" node-id="75" stroke="none" target-height="24.100006" target-width="11.600006" target-x="402" target-y="263.8"></path><g node-id="168"><path d="M 474.80 292.60 L 461.30 292.60 L 459.70 292.20 L 458.40 291.40 L 457.50 290.10 L 457.20 288.50 L 457.50 286.90 L 458.40 285.60 L 459.70 284.70 L 461.30 284.40 L 474.80 284.40 L 476.40 284.70 L 477.70 285.60 L 478.60 286.90 L 478.90 288.50 L 478.60 290.10 L 477.70 291.40 L 476.40 292.20 L 474.80 292.60 Z" fill="#4d78cc" fill-rule="nonzero" group-id="8,14" id="Path" node-id="77" stroke="none" target-height="8.200012" target-width="21.699982" target-x="457.2" target-y="284.4"></path><path d="M 474.80 313.10 L 461.30 313.10 L 459.70 312.80 L 458.40 311.90 L 457.50 310.70 L 457.20 309.10 L 457.50 307.50 L 458.40 306.20 L 459.70 305.30 L 461.30 305.00 L 474.80 305.00 L 476.40 305.30 L 477.70 306.20 L 478.60 307.50 L 478.90 309.10 L 478.60 310.70 L 477.70 311.90 L 476.40 312.80 L 474.80 313.10 Z" fill="#4d78cc" fill-rule="nonzero" group-id="8,14" id="Path" node-id="78" stroke="none" target-height="8.100006" target-width="21.699982" target-x="457.2" target-y="305"></path></g><path d="M 458.80 324.20 L 433.90 324.20 L 430.40 324.00 L 427.10 323.30 L 424.00 322.20 L 421.00 320.70 L 418.30 318.90 L 415.90 316.80 L 413.70 314.30 L 411.90 311.60 L 410.40 308.70 L 409.40 305.60 L 408.70 302.30 L 408.40 298.80 L 408.70 295.30 L 409.40 292.00 L 410.40 288.90 L 411.90 285.90 L 413.70 283.20 L 415.90 280.80 L 418.30 278.60 L 421.00 276.80 L 424.00 275.30 L 427.10 274.20 L 430.40 273.50 L 433.90 273.30 L 458.80 273.30 L 461.80 274.10 L 464.00 276.30 L 464.80 279.30 L 464.80 318.30 L 464.60 319.90 L 464.00 321.30 L 463.00 322.50 L 461.80 323.40 L 460.50 324.00 L 458.80 324.20 Z" fill="#224380" fill-rule="nonzero" group-id="8" id="Path" node-id="79" stroke="none" target-height="50.900024" target-width="56.399994" target-x="408.4" target-y="273.3"></path><g node-id="169"><path d="M 419.60 243.80 L 419.40 245.40 L 418.20 247.90 L 417.70 251.70 L 415.20 252.80 L 413.60 255.10 L 412.60 255.70 L 411.80 255.70 L 408.70 254.90 L 407.90 254.80 L 407.50 255.10 L 406.80 261.00 L 397.30 255.80 L 401.40 249.70 L 403.00 245.50 L 404.90 241.80 L 406.10 240.10 L 408.20 238.00 L 409.90 237.70 L 413.90 239.00 L 416.10 240.00 L 418.80 242.10 L 419.60 243.80 Z" fill="#f1b282" fill-rule="nonzero" group-id="8,15" id="Path" node-id="81" stroke="none" target-height="23.300003" target-width="22.300018" target-x="397.3" target-y="237.7"></path><path d="M 407.50 255.10 L 407.20 256.10 L 406.90 254.90 L 407.30 252.70 L 409.30 254.60 L 411.80 255.70 L 408.40 254.90 L 407.50 255.10 Z" fill="#cd916a" fill-rule="nonzero" group-id="8,15" id="Path" node-id="82" stroke="none" target-height="3.4000092" target-width="4.899994" target-x="406.9" target-y="252.7"></path></g><path d="M 420.70 232.70 L 422.60 235.80 L 423.60 238.60 L 423.70 240.00 L 423.30 241.30 L 421.80 243.50 L 420.70 244.10 L 419.20 244.30 L 414.10 243.00 L 412.60 244.30 L 410.30 248.30 L 409.90 247.80 L 408.60 243.80 L 408.10 243.20 L 407.50 243.30 L 406.50 244.40 L 402.50 251.20 L 401.30 252.30 L 400.80 252.30 L 399.60 251.40 L 398.40 249.70 L 397.50 247.60 L 397.10 244.80 L 397.70 240.70 L 398.60 238.40 L 401.20 234.60 L 402.60 233.40 L 404.90 232.20 L 407.20 231.60 L 411.50 231.80 L 415.90 233.10 L 417.30 233.20 L 420.70 232.70 Z" fill="#0b224e" fill-rule="nonzero" group-id="8" id="Path" node-id="83" stroke="none" target-height="20.699997" target-width="26.600006" target-x="397.1" target-y="231.6"></path><path d="M 348.50 363.70 L 343.60 368.70 L 348.00 371.80 L 353.40 366.60 Z" fill="#f1b282" fill-rule="nonzero" group-id="8" id="Path" node-id="84" stroke="none" target-height="8.099976" target-width="9.799988" target-x="343.6" target-y="363.7"></path><path d="M 403.50 368.10 L 403.40 371.70 L 397.20 371.30 L 397.50 366.80 Z" fill="#f1b282" fill-rule="nonzero" group-id="8" id="Path" node-id="85" stroke="none" target-height="4.9000244" target-width="6.299988" target-x="397.2" target-y="366.8"></path><path d="M 386.20 311.50 L 385.10 320.20 L 382.80 332.60 L 380.50 340.00 L 379.30 342.60 L 377.60 345.00 L 368.00 355.30 L 352.90 369.50 L 346.30 364.00 L 367.10 334.80 L 365.60 324.80 L 365.50 314.10 L 366.10 309.30 L 366.90 305.10 L 367.70 303.10 L 368.60 302.40 L 370.40 301.80 L 372.50 301.60 L 377.80 302.30 L 380.40 303.30 L 382.80 304.60 L 384.70 306.40 L 385.50 307.80 L 386.10 309.50 L 386.20 311.50 Z" fill="#0b224e" fill-rule="nonzero" group-id="8" id="Path" node-id="86" stroke="none" target-height="67.899994" target-width="39.900024" target-x="346.3" target-y="301.6"></path><path d="M 391.80 300.70 L 393.70 304.40 L 397.40 309.40 L 404.70 315.90 L 409.10 321.10 L 412.40 326.80 L 413.30 329.70 L 413.70 332.50 L 413.00 337.60 L 408.90 353.20 L 404.20 368.40 L 396.00 367.60 L 397.40 349.50 L 398.40 341.00 L 399.60 334.80 L 384.60 326.50 L 380.60 323.70 L 376.80 320.60 L 374.40 318.30 L 370.60 313.20 L 369.20 310.30 L 368.20 307.10 L 367.60 303.60 L 391.80 300.70 Z" fill="#102b5e" fill-rule="nonzero" group-id="8" id="Path" node-id="87" stroke="none" target-height="67.69998" target-width="46.100006" target-x="367.6" target-y="300.7"></path><path d="M 400.30 286.40 L 398.30 289.10 L 395.80 294.10 L 394.70 297.80 L 393.20 305.40 L 392.80 306.30 L 392.20 306.60 L 384.20 304.70 L 376.90 303.50 L 373.50 303.40 L 367.90 304.10 L 366.00 304.10 L 364.80 303.70 L 364.20 303.20 L 363.90 302.40 L 364.00 301.30 L 364.60 299.60 L 374.20 283.90 L 378.20 276.00 L 380.40 269.90 L 383.80 264.40 L 386.10 261.70 L 388.70 259.30 L 391.60 257.40 L 395.70 255.60 L 397.80 255.10 L 400.10 255.50 L 403.70 256.50 L 407.00 258.10 L 408.20 262.70 L 408.30 265.80 L 407.50 272.20 L 406.50 275.80 L 405.00 279.20 L 403.00 282.80 L 400.30 286.40 Z" fill="#2ccd7f" fill-rule="nonzero" group-id="8" id="Path" node-id="88" stroke="none" target-height="51.5" target-width="44.399994" target-x="363.9" target-y="255.1"></path><path d="M 396.50 292.40 L 394.80 297.60 L 392.00 290.00 L 390.80 285.50 L 390.10 281.00 L 389.90 277.90 L 390.70 272.30 L 391.60 278.90 L 392.30 281.90 L 394.70 288.90 L 396.50 292.40 Z" fill="#1eaf69" fill-rule="nonzero" group-id="8" id="Path" node-id="89" stroke="none" target-height="25.300018" target-width="6.600006" target-x="389.9" target-y="272.3"></path><path d="M 403.60 278.70 L 405.50 289.40 L 407.60 293.40 L 411.30 297.80 L 415.50 301.70 L 418.80 304.20 L 421.80 305.20 L 427.20 305.70 L 429.20 306.10 L 429.90 306.50 L 430.10 307.10 L 429.80 307.70 L 426.60 308.80 L 425.80 309.30 L 425.60 309.80 L 425.90 310.60 L 429.40 315.30 L 429.50 316.20 L 429.20 317.10 L 428.30 318.20 L 426.80 319.00 L 425.10 319.40 L 423.70 319.40 L 422.50 318.90 L 421.40 317.80 L 417.50 311.70 L 416.40 310.50 L 406.50 303.60 L 401.00 298.70 L 398.60 295.90 L 396.20 291.80 L 393.10 284.80 L 391.80 280.00 L 395.30 278.60 L 397.80 278.10 L 401.50 278.20 L 403.60 278.70 Z" fill="#f1b282" fill-rule="nonzero" group-id="8" id="Path" node-id="90" stroke="none" target-height="41.299988" target-width="38.30002" target-x="391.8" target-y="278.1"></path><path d="M 344.60 366.80 L 343.40 366.90 L 342.60 367.50 L 339.80 371.20 L 339.80 372.30 L 340.40 373.00 L 350.80 379.60 L 352.00 380.00 L 353.50 380.10 L 356.90 379.10 L 357.20 378.60 L 356.80 377.80 L 354.40 376.40 L 353.10 375.20 L 350.60 370.40 L 348.20 369.90 L 347.10 369.30 L 344.60 366.80 Z" fill="#0b224e" fill-rule="nonzero" group-id="8" id="Path" node-id="91" stroke="none" target-height="13.300018" target-width="17.400024" target-x="339.8" target-y="366.8"></path><path d="M 396.70 369.80 L 395.70 370.60 L 395.40 371.50 L 395.10 376.20 L 395.80 377.10 L 396.60 377.40 L 413.60 378.30 L 414.30 378.00 L 414.50 377.30 L 414.30 376.30 L 412.90 374.60 L 408.80 373.10 L 404.50 370.30 L 403.90 370.10 L 401.60 370.80 L 400.30 370.90 L 396.70 369.80 Z" fill="#0b224e" fill-rule="nonzero" group-id="8" id="Path" node-id="92" stroke="none" target-height="8.5" target-width="19.399994" target-x="395.1" target-y="369.8"></path><path d="M 345.70 363.30 L 345.90 364.80 L 347.10 366.00 L 350.00 368.60 L 352.30 370.20 L 353.40 370.60 L 353.90 370.40 L 354.40 369.70 L 355.20 367.60 L 356.70 366.30 L 356.70 365.30 L 356.10 364.60 L 353.10 362.80 L 349.60 359.30 L 349.20 359.20 L 348.80 359.60 L 347.90 361.20 L 346.00 362.50 L 345.70 363.30 Z" fill="#355aa2" fill-rule="nonzero" group-id="8" id="Path" node-id="93" stroke="none" target-height="11.399994" target-width="11" target-x="345.7" target-y="359.2"></path><path d="M 395.20 366.80 L 396.20 367.90 L 397.80 368.40 L 401.70 369.00 L 405.60 369.00 L 406.00 368.60 L 406.00 367.70 L 405.60 365.50 L 406.20 363.60 L 405.70 362.70 L 404.80 362.40 L 401.30 362.50 L 396.50 361.40 L 395.90 362.00 L 396.10 363.90 L 395.10 365.90 L 395.20 366.80 Z" fill="#355aa2" fill-rule="nonzero" group-id="8" id="Path" node-id="94" stroke="none" target-height="7.600006" target-width="11.100006" target-x="395.1" target-y="361.4"></path></g><g node-id="163"><path d="M 548.00 334.60 L 497.10 334.60 L 493.50 334.00 L 491.90 333.20 L 489.20 330.90 L 487.40 327.90 L 486.70 324.30 L 486.70 273.30 L 487.40 269.70 L 489.20 266.60 L 491.90 264.30 L 495.20 263.10 L 548.00 262.90 L 551.70 263.60 L 553.30 264.30 L 556.00 266.60 L 557.80 269.70 L 558.40 273.30 L 558.20 326.10 L 557.00 329.50 L 554.70 332.20 L 551.70 334.00 L 548.00 334.60 Z" fill="#c3d3f3" fill-rule="nonzero" group-id="9" id="Path" node-id="96" stroke="none" target-height="71.70001" target-width="71.70001" target-x="486.7" target-y="262.9"></path><g node-id="170"><path d="M 509.20 311.20 L 507.50 310.90 L 506.20 310.00 L 505.30 308.60 L 505.00 307.00 L 505.00 290.50 L 505.30 288.90 L 506.20 287.60 L 507.50 286.70 L 509.20 286.30 L 510.80 286.70 L 512.10 287.60 L 513.00 288.90 L 513.40 290.50 L 513.40 307.00 L 513.00 308.60 L 512.10 310.00 L 510.80 310.90 L 509.20 311.20 Z" fill="#86a0d1" fill-rule="nonzero" group-id="9,16" id="Path" node-id="98" stroke="none" target-height="24.900024" target-width="8.400024" target-x="505" target-y="286.3"></path><path d="M 535.90 311.20 L 534.30 310.90 L 533.00 310.00 L 532.10 308.60 L 531.70 307.00 L 531.70 290.50 L 532.10 288.90 L 533.00 287.60 L 534.30 286.70 L 535.90 286.30 L 537.60 286.70 L 538.90 287.60 L 539.80 288.90 L 540.10 290.50 L 540.10 307.00 L 539.80 308.60 L 538.90 310.00 L 537.60 310.90 L 535.90 311.20 Z" fill="#86a0d1" fill-rule="nonzero" group-id="9,16" id="Path" node-id="99" stroke="none" target-height="24.900024" target-width="8.399963" target-x="531.7" target-y="286.3"></path></g></g></svg>